# xmcd
#
# Track frame offsets: 
#        182
#        11102
#        22562
#        32925
#        43640
#        57347
#        71657
#        85625
#        95990
#        108920
#        121082
#        133835
#        144650
#        155745
#        167855
#        179455
#        193580
#        205995
#        219687
#        232435
#
# Disc length: 3256 seconds
#
# Revision: 3
# Processed by: cddbd v1.5.2PL0 Copyright (c) Steve Scherf et al.
# Submitted via: ExactAudioCopy v0.95b4
#
DISCID=2b0cb614
DTITLE=Ray Charles - Rockin' Chair Blues
DYEAR=1995
DGENRE=
TTITLE0=I Wonder Who's Kissing Her Now
TTITLE1=Let's Have A Ball
TTITLE2=Goin' Down Slow
TTITLE3=Sitting On Top Of The World
TTITLE4=Alone In The City
TTITLE5=Blus Is My Middle Name
TTITLE6=This Love Of Mine
TTITLE7=Now She's Gone
TTITLE8=Can Anyone Ask For More
TTITLE9=See See Rider
TTITLE10=Rockin' Chair Blues
TTITLE11=Hey Now
TTITLE12=A Sentimental Blues
TTITLE13=Can't You See Darling
TTITLE14=Tell Me Baby
TTITLE15=Baby Let Me Hold Your Hand
TTITLE16=I Won't Let You Go
TTITLE17=I'm Gonna Drown Myself
TTITLE18=Snow Is Fallin'
TTITLE19=If I Give You My Love
EXTD=
EXTT0=
EXTT1=
EXTT2=
EXTT3=
EXTT4=
EXTT5=
EXTT6=
EXTT7=
EXTT8=
EXTT9=
EXTT10=
EXTT11=
EXTT12=
EXTT13=
EXTT14=
EXTT15=
EXTT16=
EXTT17=
EXTT18=
EXTT19=
PLAYORDER=
